<svg xmlns="http://www.w3.org/2000/svg" viewBox="0 0 512 512">
  <defs>
    <linearGradient id="bg" x1="72" x2="440" y1="40" y2="472" gradientUnits="userSpaceOnUse">
      <stop offset="0" stop-color="#1d3442"/>
      <stop offset="0.56" stop-color="#101820"/>
      <stop offset="1" stop-color="#070b10"/>
    </linearGradient>
    <linearGradient id="accent" x1="326" x2="458" y1="314" y2="446" gradientUnits="userSpaceOnUse">
      <stop offset="0" stop-color="#f6b24a"/>
      <stop offset="1" stop-color="#f26c22"/>
    </linearGradient>
    <filter id="shadow" x="-12%" y="-12%" width="124%" height="124%">
      <feDropShadow dx="0" dy="16" stdDeviation="18" flood-color="#000" flood-opacity=".35"/>
    </filter>
  </defs>

  <rect width="512" height="512" rx="108" fill="url(#bg)"/>
  <circle cx="112" cy="90" r="150" fill="#274a5b" opacity=".22"/>

  <g filter="url(#shadow)">
    <path
      d="M94 396 L178 168 L286 168 L402 396 L326 396 L291 314 L205 314 L174 396 Z"
      fill="none"
      stroke="#f4efe5"
      stroke-width="34"
      stroke-linejoin="round"
      stroke-linecap="round"
    />
    <path
      d="M168 300 H292 L338 214 M218 300 L254 216 L292 300"
      fill="none"
      stroke="#f4efe5"
      stroke-width="27"
      stroke-linejoin="round"
      stroke-linecap="round"
    />
    <circle cx="168" cy="300" r="16" fill="#f4efe5"/>
    <circle cx="338" cy="214" r="16" fill="#f4efe5"/>
  </g>

  <g filter="url(#shadow)">
    <rect x="306" y="310" width="142" height="108" rx="34" fill="url(#accent)"/>
    <path
      d="M332 382 L360 356 L386 372 L423 333"
      fill="none"
      stroke="#101820"
      stroke-width="14"
      stroke-linecap="round"
      stroke-linejoin="round"
    />
    <path d="M423 333 H394 M423 333 V362" fill="none" stroke="#101820" stroke-width="14" stroke-linecap="round"/>
    <text
      x="377"
      y="407"
      text-anchor="middle"
      font-family="Avenir Next, Segoe UI, sans-serif"
      font-size="28"
      font-weight="900"
      letter-spacing="2"
      fill="#101820"
    >GTM</text>
  </g>
</svg>
