<svg xmlns="http://www.w3.org/2000/svg" width="920" height="600" viewBox="0 0 920 600" role="img" aria-labelledby="title desc">
  <title id="title">Starting ANIP Studio</title>
  <desc id="desc">ANIP Studio startup screen while the local workspace and embedded API are prepared.</desc>
  <defs>
    <radialGradient id="glow" cx="30%" cy="16%" r="62%">
      <stop offset="0%" stop-color="#355f75" stop-opacity=".28"/>
      <stop offset="58%" stop-color="#1d3347" stop-opacity=".05"/>
      <stop offset="100%" stop-color="#0f1d2c" stop-opacity="0"/>
    </radialGradient>
    <linearGradient id="panel" x1="0%" y1="0%" x2="100%" y2="100%">
      <stop offset="0%" stop-color="#fbf4e6"/>
      <stop offset="100%" stop-color="#eadcc5"/>
    </linearGradient>
    <linearGradient id="accent" x1="0%" y1="0%" x2="100%" y2="0%">
      <stop offset="0%" stop-color="#2b5b74"/>
      <stop offset="100%" stop-color="#f29d38"/>
    </linearGradient>
    <filter id="shadow" x="-20%" y="-24%" width="140%" height="150%">
      <feDropShadow dx="0" dy="22" stdDeviation="18" flood-color="#07111f" flood-opacity=".25"/>
    </filter>
  </defs>
  <rect width="920" height="600" fill="#f6efe1"/>
  <rect width="920" height="600" fill="url(#glow)"/>
  <path d="M78 104h206m352 0h206M118 496h226m232 0h226" stroke="#b9aa91" stroke-width="2" stroke-opacity=".42" stroke-linecap="round"/>
  <path d="M108 104v82m704-82v82M156 496v-74m608 74v-74" stroke="#b9aa91" stroke-width="2" stroke-opacity=".34" stroke-linecap="round"/>
  <g filter="url(#shadow)">
    <rect x="230" y="112" width="460" height="376" rx="36" fill="url(#panel)" stroke="#ffffff" stroke-width="3"/>
    <rect x="258" y="140" width="404" height="320" rx="28" fill="#fff7ea" stroke="#d9c8ac"/>
  </g>
  <g transform="translate(388 178)">
    <rect width="144" height="144" rx="36" fill="#142235"/>
    <path d="M74 31 114 113H91l-7-17H52l-7 17H22L62 31h12Zm-14 47h16L68 58l-8 20Z" fill="#f8efe0"/>
    <circle cx="108" cy="38" r="12" fill="#f29d38"/>
    <circle cx="36" cy="108" r="10" fill="#2b5b74"/>
  </g>
  <text x="460" y="370" text-anchor="middle" font-family="Avenir Next, Segoe UI, sans-serif" font-size="44" font-weight="800" fill="#142235" letter-spacing="-.9">Starting ANIP Studio</text>
  <text x="460" y="410" text-anchor="middle" font-family="Avenir Next, Segoe UI, sans-serif" font-size="22" fill="#596678">Preparing local workspace and embedded API</text>
  <rect x="334" y="444" width="252" height="10" rx="5" fill="#d4c5ad"/>
  <rect x="334" y="444" width="156" height="10" rx="5" fill="url(#accent)"/>
</svg>
